<mxfile host="app.diagrams.net" agent="Mozilla/5.0 (Windows NT 10.0; Win64; x64) AppleWebKit/537.36 (KHTML, like Gecko) Chrome/134.0.0.0 Safari/537.36 OPR/119.0.0.0" version="27.1.6">
  <diagram name="Página-1" id="sbCQ7PEBw3xXlUfDef-B">
    <mxGraphModel dx="1066" dy="610" grid="1" gridSize="10" guides="1" tooltips="1" connect="1" arrows="1" fold="1" page="1" pageScale="1" pageWidth="827" pageHeight="1169" math="0" shadow="0">
      <root>
        <mxCell id="0" />
        <mxCell id="1" parent="0" />
        <mxCell id="KhTnah0S9R7DNv2JL2hx-1" value="" style="rounded=0;whiteSpace=wrap;html=1;" parent="1" vertex="1">
          <mxGeometry x="210" width="700" height="780" as="geometry" />
        </mxCell>
        <mxCell id="KhTnah0S9R7DNv2JL2hx-2" value="Aluno" style="shape=umlActor;verticalLabelPosition=bottom;verticalAlign=top;html=1;outlineConnect=0;" parent="1" vertex="1">
          <mxGeometry x="70" y="230" width="30" height="60" as="geometry" />
        </mxCell>
        <mxCell id="KhTnah0S9R7DNv2JL2hx-5" value="UC_001 - Cadastrar-se na plataforma" style="ellipse;whiteSpace=wrap;html=1;" parent="1" vertex="1">
          <mxGeometry x="430" y="10" width="146" height="60" as="geometry" />
        </mxCell>
        <mxCell id="KhTnah0S9R7DNv2JL2hx-6" value="" style="endArrow=classic;html=1;rounded=0;entryX=0;entryY=0.5;entryDx=0;entryDy=0;" parent="1" source="KhTnah0S9R7DNv2JL2hx-2" target="KhTnah0S9R7DNv2JL2hx-5" edge="1">
          <mxGeometry width="50" height="50" relative="1" as="geometry">
            <mxPoint x="390" y="270" as="sourcePoint" />
            <mxPoint x="440" y="220" as="targetPoint" />
          </mxGeometry>
        </mxCell>
        <mxCell id="KhTnah0S9R7DNv2JL2hx-7" value="UC_002 - Manter perfil" style="ellipse;whiteSpace=wrap;html=1;" parent="1" vertex="1">
          <mxGeometry x="400" y="90" width="150" height="50" as="geometry" />
        </mxCell>
        <mxCell id="KhTnah0S9R7DNv2JL2hx-8" value="" style="endArrow=classic;html=1;rounded=0;entryX=0;entryY=0.5;entryDx=0;entryDy=0;" parent="1" source="KhTnah0S9R7DNv2JL2hx-2" target="KhTnah0S9R7DNv2JL2hx-7" edge="1">
          <mxGeometry width="50" height="50" relative="1" as="geometry">
            <mxPoint x="390" y="270" as="sourcePoint" />
            <mxPoint x="440" y="220" as="targetPoint" />
          </mxGeometry>
        </mxCell>
        <mxCell id="KhTnah0S9R7DNv2JL2hx-9" value="UC_003 - Buscar professores" style="ellipse;whiteSpace=wrap;html=1;" parent="1" vertex="1">
          <mxGeometry x="266.5" y="190" width="140" height="60" as="geometry" />
        </mxCell>
        <mxCell id="KhTnah0S9R7DNv2JL2hx-10" value="" style="endArrow=classic;html=1;rounded=0;entryX=0.064;entryY=0.26;entryDx=0;entryDy=0;entryPerimeter=0;" parent="1" source="KhTnah0S9R7DNv2JL2hx-2" target="KhTnah0S9R7DNv2JL2hx-9" edge="1">
          <mxGeometry width="50" height="50" relative="1" as="geometry">
            <mxPoint x="390" y="270" as="sourcePoint" />
            <mxPoint x="440" y="220" as="targetPoint" />
          </mxGeometry>
        </mxCell>
        <mxCell id="KhTnah0S9R7DNv2JL2hx-11" value="UC_004 - Usar filtros para a pesquisa" style="ellipse;whiteSpace=wrap;html=1;" parent="1" vertex="1">
          <mxGeometry x="452.5" y="170" width="140" height="60" as="geometry" />
        </mxCell>
        <mxCell id="KhTnah0S9R7DNv2JL2hx-12" value="&amp;lt;&amp;lt;extend&amp;gt;&amp;gt;" style="html=1;verticalAlign=bottom;labelBackgroundColor=none;endArrow=open;endFill=0;dashed=1;rounded=0;exitX=1;exitY=0.5;exitDx=0;exitDy=0;entryX=0;entryY=0.5;entryDx=0;entryDy=0;" parent="1" source="KhTnah0S9R7DNv2JL2hx-9" target="KhTnah0S9R7DNv2JL2hx-11" edge="1">
          <mxGeometry width="160" relative="1" as="geometry">
            <mxPoint x="330" y="250" as="sourcePoint" />
            <mxPoint x="490" y="250" as="targetPoint" />
          </mxGeometry>
        </mxCell>
        <mxCell id="KhTnah0S9R7DNv2JL2hx-13" value="UC_005 - Agendar aula" style="ellipse;whiteSpace=wrap;html=1;" parent="1" vertex="1">
          <mxGeometry x="266.5" y="270" width="140" height="50" as="geometry" />
        </mxCell>
        <mxCell id="KhTnah0S9R7DNv2JL2hx-14" value="" style="endArrow=classic;html=1;rounded=0;entryX=0.089;entryY=0.279;entryDx=0;entryDy=0;entryPerimeter=0;" parent="1" source="KhTnah0S9R7DNv2JL2hx-2" target="KhTnah0S9R7DNv2JL2hx-13" edge="1">
          <mxGeometry width="50" height="50" relative="1" as="geometry">
            <mxPoint x="390" y="270" as="sourcePoint" />
            <mxPoint x="440" y="220" as="targetPoint" />
          </mxGeometry>
        </mxCell>
        <mxCell id="KhTnah0S9R7DNv2JL2hx-15" value="UC_006 - Cancelar aula" style="ellipse;whiteSpace=wrap;html=1;" parent="1" vertex="1">
          <mxGeometry x="488.75" y="260" width="160" height="50" as="geometry" />
        </mxCell>
        <mxCell id="KhTnah0S9R7DNv2JL2hx-16" value="&amp;lt;&amp;lt;extend&amp;gt;&amp;gt;" style="html=1;verticalAlign=bottom;labelBackgroundColor=none;endArrow=open;endFill=0;dashed=1;rounded=0;exitX=1;exitY=0.5;exitDx=0;exitDy=0;entryX=0;entryY=0.5;entryDx=0;entryDy=0;" parent="1" source="KhTnah0S9R7DNv2JL2hx-13" target="KhTnah0S9R7DNv2JL2hx-15" edge="1">
          <mxGeometry width="160" relative="1" as="geometry">
            <mxPoint x="330" y="250" as="sourcePoint" />
            <mxPoint x="490" y="250" as="targetPoint" />
          </mxGeometry>
        </mxCell>
        <mxCell id="KhTnah0S9R7DNv2JL2hx-17" value="UC_007 - Assistir aula" style="ellipse;whiteSpace=wrap;html=1;" parent="1" vertex="1">
          <mxGeometry x="260" y="335" width="140" height="50" as="geometry" />
        </mxCell>
        <mxCell id="KhTnah0S9R7DNv2JL2hx-18" value="" style="endArrow=classic;html=1;rounded=0;entryX=0.065;entryY=0.331;entryDx=0;entryDy=0;entryPerimeter=0;" parent="1" source="KhTnah0S9R7DNv2JL2hx-2" target="KhTnah0S9R7DNv2JL2hx-17" edge="1">
          <mxGeometry width="50" height="50" relative="1" as="geometry">
            <mxPoint x="380" y="270" as="sourcePoint" />
            <mxPoint x="430" y="220" as="targetPoint" />
          </mxGeometry>
        </mxCell>
        <mxCell id="KhTnah0S9R7DNv2JL2hx-19" value="UC_008 - Assistir aula ao vivo" style="ellipse;whiteSpace=wrap;html=1;" parent="1" vertex="1">
          <mxGeometry x="488.75" y="320" width="130" height="50" as="geometry" />
        </mxCell>
        <mxCell id="KhTnah0S9R7DNv2JL2hx-20" value="&amp;lt;&amp;lt;include&amp;gt;&amp;gt;" style="html=1;verticalAlign=bottom;labelBackgroundColor=none;endArrow=open;endFill=0;dashed=1;rounded=0;exitX=1;exitY=0.5;exitDx=0;exitDy=0;entryX=0;entryY=0.5;entryDx=0;entryDy=0;" parent="1" source="KhTnah0S9R7DNv2JL2hx-17" target="KhTnah0S9R7DNv2JL2hx-19" edge="1">
          <mxGeometry width="160" relative="1" as="geometry">
            <mxPoint x="330" y="250" as="sourcePoint" />
            <mxPoint x="490" y="250" as="targetPoint" />
          </mxGeometry>
        </mxCell>
        <mxCell id="KhTnah0S9R7DNv2JL2hx-21" value="UC_009 - Assistir aula gravada" style="ellipse;whiteSpace=wrap;html=1;" parent="1" vertex="1">
          <mxGeometry x="483.75" y="380" width="135" height="45" as="geometry" />
        </mxCell>
        <mxCell id="KhTnah0S9R7DNv2JL2hx-22" value="&amp;lt;&amp;lt;include&amp;gt;&amp;gt;" style="html=1;verticalAlign=bottom;labelBackgroundColor=none;endArrow=open;endFill=0;dashed=1;rounded=0;exitX=0.942;exitY=0.699;exitDx=0;exitDy=0;exitPerimeter=0;entryX=0;entryY=0;entryDx=0;entryDy=0;" parent="1" source="KhTnah0S9R7DNv2JL2hx-17" target="KhTnah0S9R7DNv2JL2hx-21" edge="1">
          <mxGeometry width="160" relative="1" as="geometry">
            <mxPoint x="330" y="250" as="sourcePoint" />
            <mxPoint x="490" y="250" as="targetPoint" />
          </mxGeometry>
        </mxCell>
        <mxCell id="KhTnah0S9R7DNv2JL2hx-23" value="UC_010 - Avaliar professor" style="ellipse;whiteSpace=wrap;html=1;" parent="1" vertex="1">
          <mxGeometry x="297.5" y="410" width="155" height="42.5" as="geometry" />
        </mxCell>
        <mxCell id="KhTnah0S9R7DNv2JL2hx-24" value="" style="endArrow=classic;html=1;rounded=0;entryX=0.102;entryY=0.22;entryDx=0;entryDy=0;entryPerimeter=0;" parent="1" source="KhTnah0S9R7DNv2JL2hx-2" target="KhTnah0S9R7DNv2JL2hx-23" edge="1">
          <mxGeometry width="50" height="50" relative="1" as="geometry">
            <mxPoint x="380" y="270" as="sourcePoint" />
            <mxPoint x="430" y="220" as="targetPoint" />
          </mxGeometry>
        </mxCell>
        <mxCell id="KhTnah0S9R7DNv2JL2hx-25" value="UC_011 - Realizar pagamento" style="ellipse;whiteSpace=wrap;html=1;" parent="1" vertex="1">
          <mxGeometry x="312.5" y="490" width="140" height="50" as="geometry" />
        </mxCell>
        <mxCell id="KhTnah0S9R7DNv2JL2hx-26" value="" style="endArrow=classic;html=1;rounded=0;entryX=0.262;entryY=0.137;entryDx=0;entryDy=0;entryPerimeter=0;" parent="1" source="KhTnah0S9R7DNv2JL2hx-2" target="KhTnah0S9R7DNv2JL2hx-25" edge="1">
          <mxGeometry width="50" height="50" relative="1" as="geometry">
            <mxPoint x="380" y="270" as="sourcePoint" />
            <mxPoint x="430" y="220" as="targetPoint" />
          </mxGeometry>
        </mxCell>
        <mxCell id="KhTnah0S9R7DNv2JL2hx-27" value="Operadora bancária" style="shape=umlActor;verticalLabelPosition=bottom;verticalAlign=top;html=1;outlineConnect=0;" parent="1" vertex="1">
          <mxGeometry x="980" y="540" width="30" height="60" as="geometry" />
        </mxCell>
        <mxCell id="KhTnah0S9R7DNv2JL2hx-28" value="UC_012 - Aprovar pagamento" style="ellipse;whiteSpace=wrap;html=1;" parent="1" vertex="1">
          <mxGeometry x="500" y="435" width="140" height="45" as="geometry" />
        </mxCell>
        <mxCell id="KhTnah0S9R7DNv2JL2hx-29" value="&amp;lt;&amp;lt;include&amp;gt;&amp;gt;" style="html=1;verticalAlign=bottom;labelBackgroundColor=none;endArrow=open;endFill=0;dashed=1;rounded=0;exitX=1;exitY=0.5;exitDx=0;exitDy=0;" parent="1" source="KhTnah0S9R7DNv2JL2hx-25" target="KhTnah0S9R7DNv2JL2hx-28" edge="1">
          <mxGeometry width="160" relative="1" as="geometry">
            <mxPoint x="300" y="370" as="sourcePoint" />
            <mxPoint x="460" y="370" as="targetPoint" />
          </mxGeometry>
        </mxCell>
        <mxCell id="KhTnah0S9R7DNv2JL2hx-30" value="" style="endArrow=classic;html=1;rounded=0;entryX=1;entryY=1;entryDx=0;entryDy=0;" parent="1" source="KhTnah0S9R7DNv2JL2hx-27" target="KhTnah0S9R7DNv2JL2hx-28" edge="1">
          <mxGeometry width="50" height="50" relative="1" as="geometry">
            <mxPoint x="360" y="390" as="sourcePoint" />
            <mxPoint x="410" y="340" as="targetPoint" />
          </mxGeometry>
        </mxCell>
        <mxCell id="KhTnah0S9R7DNv2JL2hx-32" value="Professor" style="shape=umlActor;verticalLabelPosition=bottom;verticalAlign=top;html=1;outlineConnect=0;" parent="1" vertex="1">
          <mxGeometry x="1060" y="200" width="30" height="60" as="geometry" />
        </mxCell>
        <mxCell id="KhTnah0S9R7DNv2JL2hx-33" value="" style="endArrow=classic;html=1;rounded=0;entryX=1;entryY=0.5;entryDx=0;entryDy=0;" parent="1" source="KhTnah0S9R7DNv2JL2hx-32" target="KhTnah0S9R7DNv2JL2hx-5" edge="1">
          <mxGeometry width="50" height="50" relative="1" as="geometry">
            <mxPoint x="1020" y="160" as="sourcePoint" />
            <mxPoint x="410" y="250" as="targetPoint" />
          </mxGeometry>
        </mxCell>
        <mxCell id="KhTnah0S9R7DNv2JL2hx-34" value="" style="endArrow=classic;html=1;rounded=0;entryX=1;entryY=0.5;entryDx=0;entryDy=0;" parent="1" source="KhTnah0S9R7DNv2JL2hx-32" target="KhTnah0S9R7DNv2JL2hx-7" edge="1">
          <mxGeometry width="50" height="50" relative="1" as="geometry">
            <mxPoint x="360" y="300" as="sourcePoint" />
            <mxPoint x="410" y="250" as="targetPoint" />
          </mxGeometry>
        </mxCell>
        <mxCell id="KhTnah0S9R7DNv2JL2hx-35" value="UC_013 - Manter agenda" style="ellipse;whiteSpace=wrap;html=1;" parent="1" vertex="1">
          <mxGeometry x="630" y="180" width="140" height="40" as="geometry" />
        </mxCell>
        <mxCell id="KhTnah0S9R7DNv2JL2hx-36" value="" style="endArrow=classic;html=1;rounded=0;entryX=1;entryY=0.5;entryDx=0;entryDy=0;" parent="1" source="KhTnah0S9R7DNv2JL2hx-32" target="KhTnah0S9R7DNv2JL2hx-35" edge="1">
          <mxGeometry width="50" height="50" relative="1" as="geometry">
            <mxPoint x="360" y="300" as="sourcePoint" />
            <mxPoint x="410" y="250" as="targetPoint" />
          </mxGeometry>
        </mxCell>
        <mxCell id="KhTnah0S9R7DNv2JL2hx-38" value="UC_014 - Receber notificação de cancelamento de aula" style="ellipse;whiteSpace=wrap;html=1;" parent="1" vertex="1">
          <mxGeometry x="720" y="230" width="170" height="60" as="geometry" />
        </mxCell>
        <mxCell id="KhTnah0S9R7DNv2JL2hx-39" value="" style="endArrow=classic;html=1;rounded=0;entryX=0.947;entryY=0.29;entryDx=0;entryDy=0;entryPerimeter=0;" parent="1" source="KhTnah0S9R7DNv2JL2hx-32" target="KhTnah0S9R7DNv2JL2hx-38" edge="1">
          <mxGeometry width="50" height="50" relative="1" as="geometry">
            <mxPoint x="580" y="300" as="sourcePoint" />
            <mxPoint x="630" y="250" as="targetPoint" />
          </mxGeometry>
        </mxCell>
        <mxCell id="KhTnah0S9R7DNv2JL2hx-40" value="&amp;lt;&amp;lt;include&amp;gt;&amp;gt;" style="html=1;verticalAlign=bottom;labelBackgroundColor=none;endArrow=open;endFill=0;dashed=1;rounded=0;exitX=0.95;exitY=0.234;exitDx=0;exitDy=0;exitPerimeter=0;entryX=0.027;entryY=0.686;entryDx=0;entryDy=0;entryPerimeter=0;" parent="1" source="KhTnah0S9R7DNv2JL2hx-15" target="KhTnah0S9R7DNv2JL2hx-38" edge="1">
          <mxGeometry width="160" relative="1" as="geometry">
            <mxPoint x="520" y="280" as="sourcePoint" />
            <mxPoint x="680" y="280" as="targetPoint" />
          </mxGeometry>
        </mxCell>
        <mxCell id="KhTnah0S9R7DNv2JL2hx-41" value="UC_015 - Entrar na aula online" style="ellipse;whiteSpace=wrap;html=1;" parent="1" vertex="1">
          <mxGeometry x="700" y="310" width="150" height="50" as="geometry" />
        </mxCell>
        <mxCell id="KhTnah0S9R7DNv2JL2hx-42" value="&amp;lt;&amp;lt;include&amp;gt;&amp;gt;" style="html=1;verticalAlign=bottom;labelBackgroundColor=none;endArrow=open;endFill=0;dashed=1;rounded=0;exitX=1;exitY=0.5;exitDx=0;exitDy=0;" parent="1" source="KhTnah0S9R7DNv2JL2hx-19" target="KhTnah0S9R7DNv2JL2hx-41" edge="1">
          <mxGeometry width="160" relative="1" as="geometry">
            <mxPoint x="520" y="270" as="sourcePoint" />
            <mxPoint x="680" y="270" as="targetPoint" />
          </mxGeometry>
        </mxCell>
        <mxCell id="KhTnah0S9R7DNv2JL2hx-44" value="" style="endArrow=classic;html=1;rounded=0;entryX=0.943;entryY=0.341;entryDx=0;entryDy=0;entryPerimeter=0;" parent="1" source="KhTnah0S9R7DNv2JL2hx-32" target="KhTnah0S9R7DNv2JL2hx-41" edge="1">
          <mxGeometry width="50" height="50" relative="1" as="geometry">
            <mxPoint x="580" y="300" as="sourcePoint" />
            <mxPoint x="630" y="250" as="targetPoint" />
          </mxGeometry>
        </mxCell>
        <mxCell id="KhTnah0S9R7DNv2JL2hx-45" value="UC_016 - Fazer upload de aula gravada" style="ellipse;whiteSpace=wrap;html=1;" parent="1" vertex="1">
          <mxGeometry x="700" y="385" width="160" height="50" as="geometry" />
        </mxCell>
        <mxCell id="KhTnah0S9R7DNv2JL2hx-46" value="&amp;lt;&amp;lt;include&amp;gt;&amp;gt;" style="html=1;verticalAlign=bottom;labelBackgroundColor=none;endArrow=open;endFill=0;dashed=1;rounded=0;exitX=1;exitY=0.5;exitDx=0;exitDy=0;" parent="1" source="KhTnah0S9R7DNv2JL2hx-21" target="KhTnah0S9R7DNv2JL2hx-45" edge="1">
          <mxGeometry width="160" relative="1" as="geometry">
            <mxPoint x="520" y="290" as="sourcePoint" />
            <mxPoint x="680" y="290" as="targetPoint" />
          </mxGeometry>
        </mxCell>
        <mxCell id="KhTnah0S9R7DNv2JL2hx-47" value="" style="endArrow=classic;html=1;rounded=0;entryX=0.819;entryY=0.065;entryDx=0;entryDy=0;entryPerimeter=0;" parent="1" source="KhTnah0S9R7DNv2JL2hx-32" target="KhTnah0S9R7DNv2JL2hx-45" edge="1">
          <mxGeometry width="50" height="50" relative="1" as="geometry">
            <mxPoint x="580" y="310" as="sourcePoint" />
            <mxPoint x="630" y="260" as="targetPoint" />
          </mxGeometry>
        </mxCell>
        <mxCell id="KhTnah0S9R7DNv2JL2hx-48" value="UC_017 - Receber pagamento" style="ellipse;whiteSpace=wrap;html=1;" parent="1" vertex="1">
          <mxGeometry x="720" y="460" width="140" height="40" as="geometry" />
        </mxCell>
        <mxCell id="KhTnah0S9R7DNv2JL2hx-49" value="" style="endArrow=classic;html=1;rounded=0;entryX=1;entryY=0;entryDx=0;entryDy=0;" parent="1" source="KhTnah0S9R7DNv2JL2hx-32" target="KhTnah0S9R7DNv2JL2hx-48" edge="1">
          <mxGeometry width="50" height="50" relative="1" as="geometry">
            <mxPoint x="580" y="420" as="sourcePoint" />
            <mxPoint x="630" y="370" as="targetPoint" />
          </mxGeometry>
        </mxCell>
        <mxCell id="KhTnah0S9R7DNv2JL2hx-50" value="&amp;lt;&amp;lt;include&amp;gt;&amp;gt;" style="html=1;verticalAlign=bottom;labelBackgroundColor=none;endArrow=open;endFill=0;dashed=1;rounded=0;entryX=1;entryY=0.5;entryDx=0;entryDy=0;" parent="1" source="KhTnah0S9R7DNv2JL2hx-48" target="KhTnah0S9R7DNv2JL2hx-28" edge="1">
          <mxGeometry width="160" relative="1" as="geometry">
            <mxPoint x="520" y="400" as="sourcePoint" />
            <mxPoint x="680" y="400" as="targetPoint" />
          </mxGeometry>
        </mxCell>
        <mxCell id="KhTnah0S9R7DNv2JL2hx-51" value="UC_018 - Enviar confirmação de pagamento" style="ellipse;whiteSpace=wrap;html=1;" parent="1" vertex="1">
          <mxGeometry x="592.5" y="530" width="152.5" height="55" as="geometry" />
        </mxCell>
        <mxCell id="KhTnah0S9R7DNv2JL2hx-52" value="&amp;lt;&amp;lt;include&amp;gt;&amp;gt;" style="html=1;verticalAlign=bottom;labelBackgroundColor=none;endArrow=open;endFill=0;dashed=1;rounded=0;exitX=0.721;exitY=1.006;exitDx=0;exitDy=0;entryX=0.5;entryY=0;entryDx=0;entryDy=0;exitPerimeter=0;" parent="1" source="KhTnah0S9R7DNv2JL2hx-28" target="KhTnah0S9R7DNv2JL2hx-51" edge="1">
          <mxGeometry width="160" relative="1" as="geometry">
            <mxPoint x="520" y="610" as="sourcePoint" />
            <mxPoint x="680" y="610" as="targetPoint" />
          </mxGeometry>
        </mxCell>
        <mxCell id="KhTnah0S9R7DNv2JL2hx-53" value="" style="endArrow=classic;html=1;rounded=0;entryX=0.941;entryY=0.32;entryDx=0;entryDy=0;entryPerimeter=0;" parent="1" source="KhTnah0S9R7DNv2JL2hx-27" target="KhTnah0S9R7DNv2JL2hx-51" edge="1">
          <mxGeometry width="50" height="50" relative="1" as="geometry">
            <mxPoint x="580" y="640" as="sourcePoint" />
            <mxPoint x="630" y="590" as="targetPoint" />
          </mxGeometry>
        </mxCell>
        <mxCell id="KhTnah0S9R7DNv2JL2hx-54" value="UC_019 - Receber confirmação de pagamento" style="ellipse;whiteSpace=wrap;html=1;" parent="1" vertex="1">
          <mxGeometry x="488.75" y="710" width="142.5" height="60" as="geometry" />
        </mxCell>
        <mxCell id="KhTnah0S9R7DNv2JL2hx-59" value="" style="endArrow=classic;html=1;rounded=0;exitX=1;exitY=1;exitDx=0;exitDy=0;exitPerimeter=0;entryX=0.938;entryY=0.36;entryDx=0;entryDy=0;entryPerimeter=0;jumpStyle=arc;" parent="1" source="KhTnah0S9R7DNv2JL2hx-32" target="KhTnah0S9R7DNv2JL2hx-54" edge="1">
          <mxGeometry width="50" height="50" relative="1" as="geometry">
            <mxPoint x="580" y="520" as="sourcePoint" />
            <mxPoint x="630" y="470" as="targetPoint" />
          </mxGeometry>
        </mxCell>
        <mxCell id="KhTnah0S9R7DNv2JL2hx-60" value="" style="endArrow=classic;html=1;rounded=0;entryX=0;entryY=0.5;entryDx=0;entryDy=0;" parent="1" source="KhTnah0S9R7DNv2JL2hx-2" target="KhTnah0S9R7DNv2JL2hx-54" edge="1">
          <mxGeometry width="50" height="50" relative="1" as="geometry">
            <mxPoint x="580" y="520" as="sourcePoint" />
            <mxPoint x="630" y="470" as="targetPoint" />
          </mxGeometry>
        </mxCell>
        <mxCell id="KhTnah0S9R7DNv2JL2hx-61" value="&amp;lt;&amp;lt;include&amp;gt;&amp;gt;" style="html=1;verticalAlign=bottom;labelBackgroundColor=none;endArrow=open;endFill=0;dashed=1;rounded=0;exitX=0.41;exitY=0.898;exitDx=0;exitDy=0;exitPerimeter=0;entryX=0.5;entryY=0;entryDx=0;entryDy=0;" parent="1" source="KhTnah0S9R7DNv2JL2hx-28" target="KhTnah0S9R7DNv2JL2hx-54" edge="1">
          <mxGeometry width="160" relative="1" as="geometry">
            <mxPoint x="530" y="490" as="sourcePoint" />
            <mxPoint x="690" y="490" as="targetPoint" />
          </mxGeometry>
        </mxCell>
      </root>
    </mxGraphModel>
  </diagram>
</mxfile>
